<svg xmlns="http://www.w3.org/2000/svg" viewBox="0 0 200 200" width="200" height="200">
  <rect width="200" height="200" fill="#ffffff"/>
  <rect x="10" y="10" width="60" height="60" fill="#111827"/>
  <rect x="20" y="20" width="40" height="40" fill="#ffffff"/>
  <rect x="28" y="28" width="24" height="24" fill="#111827"/>
  <rect x="130" y="10" width="60" height="60" fill="#111827"/>
  <rect x="140" y="20" width="40" height="40" fill="#ffffff"/>
  <rect x="148" y="28" width="24" height="24" fill="#111827"/>
  <rect x="10" y="130" width="60" height="60" fill="#111827"/>
  <rect x="20" y="140" width="40" height="40" fill="#ffffff"/>
  <rect x="28" y="148" width="24" height="24" fill="#111827"/>
  <rect x="85" y="25" width="25" height="25" fill="#111827"/>
  <rect x="90" y="85" width="30" height="30" fill="#111827"/>
  <rect x="135" y="135" width="50" height="50" fill="#111827"/>
  <rect x="145" y="145" width="30" height="30" fill="#ffffff"/>
  <rect x="150" y="150" width="20" height="20" fill="#111827"/>
  <text x="100" y="185" font-family="system-ui, sans-serif" font-size="10" fill="#6b7280" text-anchor="middle">DEMO QR</text>
</svg>